<svg width="246" height="20" viewBox="0 0 246 20" fill="none" xmlns="http://www.w3.org/2000/svg">
<path d="M0.678711 8.56152V9.33981L55.5773 9.33981C55.7922 9.33981 55.9664 9.16558 55.9664 8.95067C55.9664 8.73575 55.7922 8.56152 55.5773 8.56152L0.678711 8.56152Z" fill="url(#paint0_linear_485_27745)"/>
<g filter="url(#filter0_d_485_27745)">
<rect width="4.6697" height="4.6697" rx="2.33485" transform="matrix(0 1 1 0 53.6313 6.61572)" fill="#F82BA9"/>
<rect width="4.6697" height="4.6697" rx="2.33485" transform="matrix(0 1 1 0 53.6313 6.61572)" fill="url(#paint1_linear_485_27745)" fill-opacity="0.44"/>
</g>
<g filter="url(#filter1_d_485_27745)">
<rect x="69.1973" y="1.16772" width="108.122" height="15.5657" rx="7.78283" fill="url(#paint2_linear_485_27745)"/>
<rect x="69.5864" y="1.55687" width="107.344" height="14.7874" rx="7.39369" stroke="url(#paint3_linear_485_27745)" stroke-width="0.778283"/>
<path d="M79.881 11.4506L78.3111 5.79032H79.2094L80.3121 10.1737H80.3646L81.5116 5.79032H82.4016L83.5485 10.1765H83.601L84.701 5.79032H85.602L84.0294 11.4506H83.1699L81.9787 7.21091H81.9345L80.7433 11.4506H79.881ZM87.0033 11.4506V5.79032H87.8574V8.25009H90.6792V5.79032H91.536V11.4506H90.6792V8.9825H87.8574V11.4506H87.0033ZM93.8804 11.4506H92.9739L95.0108 5.79032H95.9975L98.0344 11.4506H97.1279L95.5277 6.81845H95.4834L93.8804 11.4506ZM94.0324 9.234H96.9731V9.95259H94.0324V9.234ZM98.5265 6.52549V5.79032H102.907V6.52549H101.141V11.4506H100.29V6.52549H98.5265ZM106.743 5.79032H107.713L109.192 8.36341H109.253L110.732 5.79032H111.702L109.648 9.22847V11.4506H108.797V9.22847L106.743 5.79032ZM117.759 8.62044C117.759 9.22479 117.648 9.74438 117.427 10.1792C117.206 10.6122 116.903 10.9457 116.518 11.1797C116.134 11.4119 115.699 11.5279 115.21 11.5279C114.72 11.5279 114.283 11.4119 113.898 11.1797C113.514 10.9457 113.212 10.6113 112.991 10.1765C112.77 9.74162 112.659 9.22295 112.659 8.62044C112.659 8.01609 112.77 7.49742 112.991 7.06443C113.212 6.62959 113.514 6.29609 113.898 6.06393C114.283 5.82993 114.72 5.71293 115.21 5.71293C115.699 5.71293 116.134 5.82993 116.518 6.06393C116.903 6.29609 117.206 6.62959 117.427 7.06443C117.648 7.49742 117.759 8.01609 117.759 8.62044ZM116.913 8.62044C116.913 8.15981 116.838 7.77196 116.689 7.45688C116.542 7.13997 116.339 6.90044 116.081 6.7383C115.825 6.57431 115.535 6.49232 115.21 6.49232C114.884 6.49232 114.593 6.57431 114.337 6.7383C114.081 6.90044 113.878 7.13997 113.729 7.45688C113.582 7.77196 113.508 8.15981 113.508 8.62044C113.508 9.08107 113.582 9.46984 113.729 9.78676C113.878 10.1018 114.081 10.3414 114.337 10.5053C114.593 10.6675 114.884 10.7486 115.21 10.7486C115.535 10.7486 115.825 10.6675 116.081 10.5053C116.339 10.3414 116.542 10.1018 116.689 9.78676C116.838 9.46984 116.913 9.08107 116.913 8.62044ZM123.086 5.79032H123.943V9.51314C123.943 9.90929 123.85 10.2603 123.663 10.5661C123.477 10.8702 123.216 11.1097 122.879 11.2847C122.541 11.4579 122.146 11.5445 121.693 11.5445C121.241 11.5445 120.847 11.4579 120.51 11.2847C120.173 11.1097 119.911 10.8702 119.725 10.5661C119.539 10.2603 119.446 9.90929 119.446 9.51314V5.79032H120.3V9.44405C120.3 9.70016 120.356 9.92771 120.469 10.1267C120.583 10.3257 120.744 10.4823 120.952 10.5966C121.16 10.7089 121.407 10.7651 121.693 10.7651C121.98 10.7651 122.228 10.7089 122.436 10.5966C122.646 10.4823 122.807 10.3257 122.917 10.1267C123.03 9.92771 123.086 9.70016 123.086 9.44405V5.79032ZM129.597 11.4506L128.028 5.79032H128.926L130.029 10.1737H130.081L131.228 5.79032H132.118L133.265 10.1765H133.318L134.418 5.79032H135.319L133.746 11.4506H132.886L131.695 7.21091H131.651L130.46 11.4506H129.597ZM137.574 5.79032V11.4506H136.72V5.79032H137.574ZM139.44 11.4506V5.79032H140.294V10.7154H142.859V11.4506H139.44ZM144.456 11.4506V5.79032H145.31V10.7154H147.875V11.4506H144.456ZM155.984 7.57849C155.931 7.41082 155.859 7.26065 155.769 7.12799C155.68 6.99349 155.575 6.87925 155.451 6.78528C155.328 6.68947 155.187 6.61669 155.028 6.56694C154.872 6.51719 154.699 6.49232 154.511 6.49232C154.193 6.49232 153.905 6.57431 153.649 6.7383C153.393 6.90228 153.19 7.14273 153.041 7.45965C152.894 7.77472 152.82 8.16073 152.82 8.61768C152.82 9.07647 152.895 9.46432 153.044 9.78123C153.193 10.0981 153.398 10.3386 153.657 10.5026C153.917 10.6666 154.213 10.7486 154.545 10.7486C154.852 10.7486 155.12 10.6859 155.349 10.5606C155.579 10.4353 155.757 10.2584 155.882 10.03C156.009 9.79966 156.073 9.52881 156.073 9.21742L156.294 9.25888H154.674V8.55411H156.899V9.19807C156.899 9.67344 156.798 10.0862 156.595 10.4363C156.394 10.7845 156.116 11.0535 155.761 11.2433C155.407 11.4331 155.002 11.5279 154.545 11.5279C154.032 11.5279 153.583 11.41 153.196 11.1742C152.811 10.9383 152.51 10.6039 152.295 10.1709C152.079 9.73609 151.971 9.22018 151.971 8.6232C151.971 8.17178 152.034 7.76643 152.159 7.40714C152.285 7.04784 152.461 6.7429 152.687 6.49232C152.916 6.23989 153.184 6.04735 153.492 5.91469C153.801 5.78018 154.139 5.71293 154.506 5.71293C154.812 5.71293 155.096 5.75807 155.36 5.84836C155.625 5.93864 155.861 6.0667 156.067 6.23252C156.276 6.39835 156.448 6.5955 156.584 6.82398C156.721 7.05061 156.813 7.30211 156.861 7.57849H155.984ZM158.606 11.4506V5.79032H162.155V6.52549H159.46V8.25009H161.97V8.9825H159.46V10.7154H162.188V11.4506H158.606ZM163.639 6.52549V5.79032H168.02V6.52549H166.254V11.4506H165.402V6.52549H163.639Z" fill="#F82BA9"/>
</g>
<path d="M245.838 8.56152V9.33981L190.939 9.33981C190.724 9.33981 190.55 9.16558 190.55 8.95067C190.55 8.73575 190.724 8.56152 190.939 8.56152L245.838 8.56152Z" fill="url(#paint4_linear_485_27745)"/>
<g filter="url(#filter2_d_485_27745)">
<rect x="192.885" y="6.61572" width="4.6697" height="4.6697" rx="2.33485" transform="rotate(90 192.885 6.61572)" fill="#F82BA9"/>
<rect x="192.885" y="6.61572" width="4.6697" height="4.6697" rx="2.33485" transform="rotate(90 192.885 6.61572)" fill="url(#paint5_linear_485_27745)" fill-opacity="0.44"/>
</g>
<defs>
<filter id="filter0_d_485_27745" x="52.0748" y="5.05916" width="7.78306" height="7.78281" filterUnits="userSpaceOnUse" color-interpolation-filters="sRGB">
<feFlood flood-opacity="0" result="BackgroundImageFix"/>
<feColorMatrix in="SourceAlpha" type="matrix" values="0 0 0 0 0 0 0 0 0 0 0 0 0 0 0 0 0 0 127 0" result="hardAlpha"/>
<feMorphology radius="1.55657" operator="dilate" in="SourceAlpha" result="effect1_dropShadow_485_27745"/>
<feOffset/>
<feComposite in2="hardAlpha" operator="out"/>
<feColorMatrix type="matrix" values="0 0 0 0 0.368627 0 0 0 0 0.282353 0 0 0 0 0.92549 0 0 0 0.09 0"/>
<feBlend mode="normal" in2="BackgroundImageFix" result="effect1_dropShadow_485_27745"/>
<feBlend mode="normal" in="SourceGraphic" in2="effect1_dropShadow_485_27745" result="shape"/>
</filter>
<filter id="filter1_d_485_27745" x="67.6407" y="0.389441" width="111.235" height="18.6788" filterUnits="userSpaceOnUse" color-interpolation-filters="sRGB">
<feFlood flood-opacity="0" result="BackgroundImageFix"/>
<feColorMatrix in="SourceAlpha" type="matrix" values="0 0 0 0 0 0 0 0 0 0 0 0 0 0 0 0 0 0 127 0" result="hardAlpha"/>
<feOffset dy="0.778283"/>
<feGaussianBlur stdDeviation="0.778283"/>
<feComposite in2="hardAlpha" operator="out"/>
<feColorMatrix type="matrix" values="0 0 0 0 0.321569 0 0 0 0 0.345098 0 0 0 0 0.4 0 0 0 0.06 0"/>
<feBlend mode="normal" in2="BackgroundImageFix" result="effect1_dropShadow_485_27745"/>
<feBlend mode="normal" in="SourceGraphic" in2="effect1_dropShadow_485_27745" result="shape"/>
</filter>
<filter id="filter2_d_485_27745" x="186.659" y="5.05916" width="7.78306" height="7.78281" filterUnits="userSpaceOnUse" color-interpolation-filters="sRGB">
<feFlood flood-opacity="0" result="BackgroundImageFix"/>
<feColorMatrix in="SourceAlpha" type="matrix" values="0 0 0 0 0 0 0 0 0 0 0 0 0 0 0 0 0 0 127 0" result="hardAlpha"/>
<feMorphology radius="1.55657" operator="dilate" in="SourceAlpha" result="effect1_dropShadow_485_27745"/>
<feOffset/>
<feComposite in2="hardAlpha" operator="out"/>
<feColorMatrix type="matrix" values="0 0 0 0 0.368627 0 0 0 0 0.282353 0 0 0 0 0.92549 0 0 0 0.09 0"/>
<feBlend mode="normal" in2="BackgroundImageFix" result="effect1_dropShadow_485_27745"/>
<feBlend mode="normal" in="SourceGraphic" in2="effect1_dropShadow_485_27745" result="shape"/>
</filter>
<linearGradient id="paint0_linear_485_27745" x1="0.678711" y1="8.95067" x2="55.9664" y2="8.95067" gradientUnits="userSpaceOnUse">
<stop stop-color="#F82BA9" stop-opacity="0"/>
<stop offset="1" stop-color="#F82BA9"/>
</linearGradient>
<linearGradient id="paint1_linear_485_27745" x1="0" y1="2.33485" x2="4.6697" y2="2.33485" gradientUnits="userSpaceOnUse">
<stop stop-color="white"/>
<stop offset="1" stop-color="white" stop-opacity="0"/>
</linearGradient>
<linearGradient id="paint2_linear_485_27745" x1="123.258" y1="1.16772" x2="123.331" y2="21.0363" gradientUnits="userSpaceOnUse">
<stop offset="0.66372" stop-color="white"/>
<stop offset="1" stop-color="#F5F5F5"/>
</linearGradient>
<linearGradient id="paint3_linear_485_27745" x1="50.3269" y1="11.1742" x2="186.893" y2="1.10425" gradientUnits="userSpaceOnUse">
<stop stop-color="#F82BA9"/>
<stop offset="0.297066" stop-color="#E8EAF3"/>
<stop offset="0.681584" stop-color="#E8EAF3"/>
<stop offset="1" stop-color="#F82BA9"/>
</linearGradient>
<linearGradient id="paint4_linear_485_27745" x1="245.838" y1="8.95067" x2="190.55" y2="8.95067" gradientUnits="userSpaceOnUse">
<stop stop-color="#F82BA9" stop-opacity="0"/>
<stop offset="1" stop-color="#F82BA9"/>
</linearGradient>
<linearGradient id="paint5_linear_485_27745" x1="192.885" y1="8.95057" x2="197.555" y2="8.95057" gradientUnits="userSpaceOnUse">
<stop stop-color="white"/>
<stop offset="1" stop-color="white" stop-opacity="0"/>
</linearGradient>
</defs>
</svg>
